<svg fill="none" height="1024" viewBox="0 0 1024 1024" width="1024" xmlns="http://www.w3.org/2000/svg" xmlns:xlink="http://www.w3.org/1999/xlink"><filter id="a" color-interpolation-filters="sRGB" filterUnits="userSpaceOnUse" height="132.405" width="109.364" x="360.354" y="391.567"><feFlood flood-opacity="0" result="BackgroundImageFix"/><feBlend in="SourceGraphic" in2="BackgroundImageFix" mode="normal" result="shape"/><feColorMatrix in="SourceAlpha" result="hardAlpha" type="matrix" values="0 0 0 0 0 0 0 0 0 0 0 0 0 0 0 0 0 0 127 0"/><feOffset dy="4"/><feGaussianBlur stdDeviation="2"/><feComposite in2="hardAlpha" k2="-1" k3="1" operator="arithmetic"/><feColorMatrix type="matrix" values="0 0 0 0 0 0 0 0 0 0 0 0 0 0 0 0 0 0 0.25 0"/><feBlend in2="shape" mode="normal" result="effect1_innerShadow_1574_86"/></filter><filter id="b" color-interpolation-filters="sRGB" filterUnits="userSpaceOnUse" height="132.465" width="109.353" x="517.739" y="400.489"><feFlood flood-opacity="0" result="BackgroundImageFix"/><feBlend in="SourceGraphic" in2="BackgroundImageFix" mode="normal" result="shape"/><feColorMatrix in="SourceAlpha" result="hardAlpha" type="matrix" values="0 0 0 0 0 0 0 0 0 0 0 0 0 0 0 0 0 0 127 0"/><feOffset dy="4"/><feGaussianBlur stdDeviation="2"/><feComposite in2="hardAlpha" k2="-1" k3="1" operator="arithmetic"/><feColorMatrix type="matrix" values="0 0 0 0 0 0 0 0 0 0 0 0 0 0 0 0 0 0 0.25 0"/><feBlend in2="shape" mode="normal" result="effect1_innerShadow_1574_86"/></filter><path d="m301.652 83.1906c-5.346 87.5974 69.376 166.1664 102.29 178.5974-1.613 83.695-23.028 216.493-95.782 78.126-72.753-138.367-11.344-279.1709-6.508-256.7234z" fill="#b86868"/><path d="m726.13 97.1315c-1.848 87.7405-82.755 159.9255-116.576 169.6185-5.248 83.546 5.217 217.652 89.06 85.709 83.843-131.942 34.174-277.3035 27.516-255.3275z" fill="#b86868"/><path d="m301.625 83.2603c-6.337 90.9557 67.696 171.6497 100.555 184.1807-2.552 86.865-25.504 224.904-96.896 82.138-71.393-142.765-8.256-289.5576-3.659-266.3187z" fill="#734848"/><path d="m726.151 97.2031c-1.135 91.1689-81.529 165.5279-115.304 175.3259-4.572 86.782 6.995 226.236 89.842 89.799 82.847-136.438 31.947-287.9091 25.462-265.1249z" fill="#734848"/><path d="m262.757 408.533c-48.021 91.474-139.598 58.827-179.3841 31.069 72.2471 32.729 131.2781-47.887 151.7631-92.286 29.215-17.709 75.641-30.258 27.621 61.217z" fill="#f3bdbd"/><path d="m749.518 433.814c74.908 76.599 152.76 23.448 182.322-12.702-59.231 48.64-141.322-14.898-174.964-52.747-33.664-10.1-82.266-11.149-7.358 65.449z" fill="#f3bdbd"/><path d="m97.3945 438.804c5.1485 15.84 65.2465 16.985 94.6525 15.578-7.001 5.434-17.372 15.564-2.857 12.615 14.516-2.949 18.946-6.442 19.347-7.819 13.327-26.254 36.678-72.998 23.47-49.947s-95.245 29.32-134.6125 29.573z" fill="#e59999"/><path d="m918.1 423.674c.019 16.461-57.437 31.832-86.167 37.459 8.44 3.566 21.597 10.849 6.707 11.459-14.89.609-20.248-1.699-21.066-2.929-21.06-22.092-58.196-61.516-38.255-42.477 19.942 19.039 100.83 5.592 138.781-3.512z" fill="#e59999"/><path d="m264.293 378.148c-48.492 86.404-140.458 77.589-180.3789 62.381 64.9809-14.243 46.5039-101.319 126.2169-124.38 63.771-18.45 62.679 33.645 54.162 61.999z" fill="#fff"/><path d="m738.503 404.949c73.771 71.609 159.476 41.293 193.108 17.184-66.984 1.726-76.539-86.429-160.463-89.688-67.139-2.607-49.738 47.25-32.645 72.504z" fill="#fff"/><path d="m457.425 244.496c-231.482 26.051-277.152 213.755-271.052 304.35-187.87993 216.427 44.543 429.344 433.861 382.67 333.534-39.986 274.201-249.169 202.843-348.762 37.327-122.759-76.3-370.822-365.652-338.258z" fill="#fff"/><path d="m477.931 563.986c-160.99-51.14-266.807-46.791-314.845 17.106-194.4805 258.68 212.488 424.068 522.514 345.437 248.02-62.902 210.244-232 160.353-308.686-74.303-108.339-252.386-67.264-297.678-56.818l-.571.132c-35.476 8.18-61.297 5.295-69.773 2.829z" fill="#f3bdbd"/><path d="m493.599 752.758c-70.84.361-115.578-42.351-129.092-63.753-5.348 36.983 10.7 102.734 126.827 107.799 115.346 5.03 134.254-68.346 129.945-100.944-13.043 18.815-56.84 56.537-127.68 56.898z" fill="#b86868"/><path d="m374.455 611.603c-11.523-13.372-37.739-37.028-50.415-24.683-15.844 15.431 49.972 34.574 50.415 24.683z" fill="#944e4e"/><path d="m601.307 629.622c10.477-13.578 34.835-37.711 48.461-25.613 17.032 15.123-47.249 35.489-48.461 25.613z" fill="#944e4e"/><ellipse cx="58.2537" cy="68.3002" fill="#944e4e" rx="58.2537" ry="68.3002" transform="matrix(.998637 .0521835 -.0283779 .999597 359.184 383.786)"/><g stroke="#944e4e" stroke-linecap="round" stroke-width="3"><path d="m625.362 409.349c-3.531-.637-11.016.347-12.711 9.381"/><path d="m363.314 402.312c3.292-1.25 10.855-1.619 14.769 6.911"/><path d="m619.404 396.388c-3.866-.169-12.515 2.438-16.181 14.219"/><path d="m365.9 388.584c3.737-.853 12.843.158 19.369 11.022"/><path d="m603.397 391.892c-3.043.656-9.939 4.866-13.18 16.454"/><path d="m380.425 381.341c3.139.101 10.931 2.99 16.994 13.741"/></g><ellipse cx="58.1875" cy="68.3851" fill="#944e4e" rx="58.1875" ry="68.3851" transform="matrix(.999966 .00823195 .019641 .999807 513.238 395.183)"/><g filter="url(#a)"><ellipse cx="54.7256" cy="64.1635" fill="#fff" rx="54.7256" ry="64.1635" transform="matrix(.998637 .0521835 -.0283779 .999597 362.206 388.776)"/></g><g filter="url(#b)"><ellipse cx="54.6633" cy="64.2433" fill="#fff" rx="54.6633" ry="64.2433" transform="matrix(.999966 .00823195 .019641 .999807 516.492 400.041)"/></g><ellipse cx="36.1639" cy="38.9632" fill="#443737" rx="36.1639" ry="38.9632" transform="matrix(.999028 .0440867 -.0195109 .99981 380.714 431.688)"/><ellipse cx="36.1216" cy="39.013" fill="#443737" rx="36.1216" ry="39.013" transform="matrix(1 .00010701 .0284856 .999594 537.016 442.146)"/><ellipse cx="13.2385" cy="12.5846" fill="#fff" rx="13.2385" ry="12.5846" transform="matrix(.975761 .218842 -.212304 .977204 421.345 427.783)"/><ellipse cx="13.2333" cy="12.5901" fill="#fff" rx="13.2333" ry="12.5901" transform="matrix(.984392 .175991 -.164837 .986321 579.485 438.436)"/><path d="m656.131 366.857c28.317-97.36-156.905-23.905-170.501-124.976 208.875-17.559 307.462 131.925 330.149 209.177-19.146-39.225-174.21-34.132-159.648-84.201z" fill="#443737"/><path d="m294.528 387.622c88.851-51.26 54.81-81.543 20.677-71.089-14.07 3.618-65.424 28.005-81.889 53.286-16.466 25.281-41.602 65.157-18.19 84.92 37.626 31.761 106.822 31.069 79.619-23.105-11.511-22.924-14.272-34.478-.217-44.012z" fill="#443737"/><ellipse cx="770.153" cy="663.707" fill="#e59999" rx="53.7442" ry="38.945" transform="matrix(.96021038 .27927769 -.27927769 .96021038 216.002658 -188.677903)"/><ellipse cx="228.458" cy="634.634" fill="#e59999" rx="53.7442" ry="38.945" transform="matrix(.99450459 -.10469301 .10469301 .99450459 -65.186274 27.405532)"/></svg>